<svg width="60" height="60" viewBox="0 0 60 60" fill="none" xmlns="http://www.w3.org/2000/svg">
<path d="M51.0167 40.8667C48.3386 37.965 45.0887 35.6493 41.4716 34.0655C37.8545 32.4817 33.9487 31.6641 30 31.6641C26.0514 31.6641 22.1455 32.4817 18.5285 34.0655C14.9114 35.6493 11.6615 37.965 8.98337 40.8667C8.5699 41.3239 8.33861 41.9169 8.33337 42.5333V52.5333C8.34214 53.1906 8.60939 53.8179 9.07729 54.2796C9.54518 54.7412 10.1761 55.0001 10.8334 55H49.1667C49.8298 55 50.4656 54.7366 50.9345 54.2678C51.4033 53.7989 51.6667 53.163 51.6667 52.5V42.5C51.6534 41.8951 51.4227 41.3153 51.0167 40.8667Z" fill="#6161A4"/>
<path d="M30 28.3333C36.4434 28.3333 41.6667 23.11 41.6667 16.6667C41.6667 10.2233 36.4434 5 30 5C23.5567 5 18.3334 10.2233 18.3334 16.6667C18.3334 23.11 23.5567 28.3333 30 28.3333Z" fill="#6161A4"/>
</svg>
