<svg width="23" height="22" viewBox="0 0 23 22" fill="none" xmlns="http://www.w3.org/2000/svg">
<path d="M8.40769 19H5.39724C4.33268 19 3.31171 18.5786 2.55896 17.8284C1.8062 17.0783 1.3833 16.0609 1.3833 15V6C1.3833 4.93913 1.8062 3.92172 2.55896 3.17157C3.31171 2.42143 4.33268 2 5.39724 2H16.4356C17.5001 2 18.5211 2.42143 19.2738 3.17157C20.0266 3.92172 20.4495 4.93913 20.4495 6V9" stroke="#32373A" stroke-width="2" stroke-linecap="round" stroke-linejoin="round"/>
<path d="M7.40417 1V3" stroke="#32373A" stroke-width="2" stroke-linecap="round" stroke-linejoin="round"/>
<path d="M14.4286 1V3" stroke="#32373A" stroke-width="2" stroke-linecap="round" stroke-linejoin="round"/>
<path d="M1.3833 7H20.4495" stroke="#32373A" stroke-width="2" stroke-linecap="round" stroke-linejoin="round"/>
<path d="M17.9408 14.6431L16.4355 16.1431" stroke="#32373A" stroke-width="2" stroke-linecap="round" stroke-linejoin="round"/>
<path d="M16.4355 21C19.2066 21 21.4529 18.7614 21.4529 16C21.4529 13.2386 19.2066 11 16.4355 11C13.6645 11 11.4181 13.2386 11.4181 16C11.4181 18.7614 13.6645 21 16.4355 21Z" stroke="#32373A" stroke-width="2" stroke-linecap="round" stroke-linejoin="round"/>
</svg>
